<?xml version="1.0" encoding="UTF-8"?>
<svg width="1200pt" height="1200pt" version="1.1" viewBox="0 0 1200 1200" xmlns="http://www.w3.org/2000/svg">
 <path d="m47.82 318.13c0-95.531 77.844-173.39 173.39-173.39h757.61c95.531 0 173.38 77.855 173.38 173.39v563.75c0 95.531-77.844 173.38-173.38 173.38l-757.62 0.003906c-95.543 0-173.39-77.844-173.39-173.38v-563.75zm450.13 315.55-325.95 344.76c14.785 7.5703 31.5 11.855 49.188 11.855h757.61c19.043 0 36.973-4.957 52.559-13.668l-326.33-345.17c-60.758 46.297-145.46 47.125-207.1 2.2188zm-372.25 299.41 324.96-343.71-324.06-324.08c-8.7969 15.648-13.812 33.672-13.812 52.836v563.75c0 18.492 4.6797 35.941 12.926 51.203zm626.26-346.34 324.14 342.86c7.1172-14.41 11.125-30.625 11.125-47.723l-0.003906-563.76c0-19.152-5.0039-37.176-13.801-52.836l-321.46 321.45zm-578.14-366.09 349.51 349.51c42.191 42.191 111.16 42.191 153.34 0l349.51-349.51c-14.328-7.0078-30.395-10.945-47.363-10.945h-757.62c-16.969 0-33.047 3.9375-47.375 10.945z" fill="#fff" fill-rule="evenodd"/>
</svg>
